<?xml version="1.0" encoding="utf-8"?>
<!-- Generator: Adobe Illustrator 16.0.0, SVG Export Plug-In . SVG Version: 6.00 Build 0)  -->
<!DOCTYPE svg PUBLIC "-//W3C//DTD SVG 1.1//EN" "http://www.w3.org/Graphics/SVG/1.1/DTD/svg11.dtd">
<svg version="1.1" id="Layer_1" xmlns="http://www.w3.org/2000/svg" xmlns:xlink="http://www.w3.org/1999/xlink" x="0px" y="0px"
	 width="595.28px" height="400.706px" viewBox="0 0 595.28 400.706" enable-background="new 0 0 595.28 400.706"
	 xml:space="preserve">
<path fill-rule="evenodd" clip-rule="evenodd" fill="none" stroke="#FFFFFF" stroke-width="18.4931" stroke-linecap="round" stroke-linejoin="round" stroke-miterlimit="10" d="
	M370.234,316.895c44.277,0.001,88.557,0.001,132.834,0.001c0.572,0,1.144-0.011,1.716,0.004c1.953,0.051,2.913,0.923,2.934,2.652
	c0.021,1.805-0.939,2.737-2.984,2.746c-5.612,0.025-11.226,0.011-16.838,0.011c-83.878,0-167.757,0-251.636-0.01
	c-0.772,0-1.812,0.151-2.257-0.268c-0.714-0.674-1.479-1.806-1.401-2.667c0.078-0.844,1.092-1.711,1.881-2.333
	c0.397-0.313,1.204-0.133,1.826-0.133C280.951,316.895,325.592,316.895,370.234,316.895z"/>
<g>
	
		<path fill="none" stroke="#FFFFFF" stroke-width="18.4931" stroke-linecap="round" stroke-linejoin="round" stroke-miterlimit="10" d="
		M252.065,342.804l-2.687-9.507l-2.743,9.507h-3.105l-4.401-13.336h3.239l2.801,10.06l2.781-10.06h2.953l2.819,10.06l2.782-10.06
		h3.086l-4.42,13.336H252.065z"/>
	
		<path fill="none" stroke="#FFFFFF" stroke-width="18.4931" stroke-linecap="round" stroke-linejoin="round" stroke-miterlimit="10" d="
		M267.728,331.964v2.896h6.44v2.496h-6.44v2.953h7.354v2.495h-10.364v-13.336h10.154v2.496H267.728z"/>
	
		<path fill="none" stroke="#FFFFFF" stroke-width="18.4931" stroke-linecap="round" stroke-linejoin="round" stroke-miterlimit="10" d="
		M287.391,329.468c2.934,0,4.763,1.276,4.763,3.334c0,1.448-0.876,2.572-2.305,2.935c1.715,0.323,2.782,1.619,2.782,3.371
		c0,2.287-1.924,3.696-5.03,3.696h-6.344v-13.336H287.391z M284.267,334.84h2.972c1.124,0,1.829-0.552,1.829-1.485
		c0-0.915-0.705-1.429-1.829-1.429h-2.972V334.84z M284.267,340.346h2.972c1.429,0,2.286-0.59,2.286-1.619
		c0-0.971-0.857-1.563-2.286-1.563h-2.972V340.346z"/>
	
		<path fill="none" stroke="#FFFFFF" stroke-width="18.4931" stroke-linecap="round" stroke-linejoin="round" stroke-miterlimit="10" d="
		M316.086,342.804v-5.258h-6.04v5.258h-3.01v-13.336h3.01v5.563h6.04v-5.563h3.01v13.336H316.086z"/>
	
		<path fill="none" stroke="#FFFFFF" stroke-width="18.4931" stroke-linecap="round" stroke-linejoin="round" stroke-miterlimit="10" d="
		M339.216,336.136c0,3.849-3.087,6.802-7.164,6.802c-4.076,0-7.163-2.934-7.163-6.802c0-3.887,3.087-6.764,7.163-6.764
		C336.129,329.373,339.216,332.269,339.216,336.136z M327.976,336.136c0,2.344,1.886,4.173,4.114,4.173
		c2.229,0,4.039-1.829,4.039-4.173c0-2.343-1.81-4.134-4.039-4.134C329.842,332.002,327.976,333.793,327.976,336.136z"/>
	
		<path fill="none" stroke="#FFFFFF" stroke-width="18.4931" stroke-linecap="round" stroke-linejoin="round" stroke-miterlimit="10" d="
		M354.954,330.783l-1.162,2.496c-1.41-0.839-3.087-1.372-4.153-1.372c-1.01,0-1.695,0.362-1.695,1.086
		c0,2.458,7.106,1.086,7.087,5.888c0,2.609-2.267,4.02-5.22,4.02c-2.191,0-4.383-0.839-5.888-2.115l1.2-2.457
		c1.372,1.219,3.315,2,4.726,2c1.238,0,1.98-0.457,1.98-1.276c0-2.515-7.105-1.048-7.105-5.772c0-2.42,2.076-3.943,5.163-3.943
		C351.754,329.335,353.621,329.907,354.954,330.783z"/>
	
		<path fill="none" stroke="#FFFFFF" stroke-width="18.4931" stroke-linecap="round" stroke-linejoin="round" stroke-miterlimit="10" d="
		M366.71,332.021v10.783h-3.01v-10.783h-4.058v-2.553h11.145v2.553H366.71z"/>
	
		<path fill="none" stroke="#FFFFFF" stroke-width="18.4931" stroke-linecap="round" stroke-linejoin="round" stroke-miterlimit="10" d="
		M376.219,342.804v-13.336h3.01v13.336H376.219z"/>
	
		<path fill="none" stroke="#FFFFFF" stroke-width="18.4931" stroke-linecap="round" stroke-linejoin="round" stroke-miterlimit="10" d="
		M395.328,342.804l-6.459-8.554v8.554h-2.876v-13.336h2.743l6.478,8.573v-8.573h2.857v13.336H395.328z"/>
	
		<path fill="none" stroke="#FFFFFF" stroke-width="18.4931" stroke-linecap="round" stroke-linejoin="round" stroke-miterlimit="10" d="
		M416.382,336.079v5.126c-1.409,1.028-3.563,1.733-5.41,1.733c-4.039,0-7.106-2.934-7.106-6.802c0-3.849,3.124-6.764,7.277-6.764
		c1.981,0,4.001,0.763,5.354,1.943l-1.695,2.153c-0.991-0.914-2.362-1.486-3.658-1.486c-2.362,0-4.191,1.811-4.191,4.153
		c0,2.362,1.848,4.173,4.211,4.173c0.8,0,1.752-0.286,2.609-0.725v-3.506H416.382z"/>
	
		<path fill="none" stroke="#FFFFFF" stroke-width="18.4931" stroke-linecap="round" stroke-linejoin="round" stroke-miterlimit="10" d="
		M436.884,329.468c3.392,0,5.335,1.677,5.335,4.63c0,3.105-1.943,4.896-5.335,4.896h-2.647v3.811h-3.011v-13.336H436.884z
		 M434.236,336.479h2.495c1.677,0,2.63-0.762,2.63-2.286c0-1.486-0.953-2.229-2.63-2.229h-2.495V336.479z"/>
	
		<path fill="none" stroke="#FFFFFF" stroke-width="18.4931" stroke-linecap="round" stroke-linejoin="round" stroke-miterlimit="10" d="
		M449.65,340.213l-1.048,2.591h-3.105l5.792-13.336h3.104l5.696,13.336h-3.219l-1.048-2.591H449.65z M452.756,332.612l-2.115,5.182
		h4.21L452.756,332.612z"/>
	
		<path fill="none" stroke="#FFFFFF" stroke-width="18.4931" stroke-linecap="round" stroke-linejoin="round" stroke-miterlimit="10" d="
		M474.629,342.804l-6.459-8.554v8.554h-2.877v-13.336h2.744l6.477,8.573v-8.573h2.858v13.336H474.629z"/>
	
		<path fill="none" stroke="#FFFFFF" stroke-width="18.4931" stroke-linecap="round" stroke-linejoin="round" stroke-miterlimit="10" d="
		M487.128,331.964v2.896h6.439v2.496h-6.439v2.953h7.354v2.495h-10.364v-13.336h10.154v2.496H487.128z"/>
	
		<path fill="none" stroke="#FFFFFF" stroke-width="18.4931" stroke-linecap="round" stroke-linejoin="round" stroke-miterlimit="10" d="
		M509.383,340.175v2.629h-8.726v-13.336h3.01v10.707H509.383z"/>
</g>
<g>
	
		<path fill="none" stroke="#FFFFFF" stroke-width="18.4931" stroke-linecap="round" stroke-linejoin="round" stroke-miterlimit="10" d="
		M136.851,308.327h-26.787c-4.138,0-8.118-0.941-11.94-2.824c-4.138-2.039-7.294-5.28-9.467-9.727
		c-2.173-4.445-3.259-9.335-3.259-14.669c0-5.281,1.046-10.067,3.143-14.356c2.304-4.652,5.499-8.052,9.583-10.197
		c2.251-1.15,4.411-1.96,6.48-2.432c2.069-0.471,4.438-0.706,7.109-0.706h24.824v9.82h-22.938c-2.042,0-3.759,0.27-5.146,0.81
		c-1.389,0.54-2.764,1.504-4.124,2.892c-1.363,1.389-2.305,2.737-2.828,4.048c-0.524,1.312-0.786,2.944-0.786,4.898h36.136v9.819
		h-36.136c0,1.781,0.236,3.339,0.709,4.674c0.474,1.335,1.329,2.71,2.564,4.124c1.235,1.414,2.525,2.488,3.867,3.222
		c1.34,0.733,2.932,1.1,4.773,1.1h24.222V308.327z"/>
	
		<path fill="none" stroke="#FFFFFF" stroke-width="18.4931" stroke-linecap="round" stroke-linejoin="round" stroke-miterlimit="10" d="
		M183.279,308.327h-29.38c-3.3,0-6.115-1.108-8.445-3.327c-2.33-2.218-3.496-5.024-3.496-8.418c0-3.55,1.058-6.486,3.173-8.809
		c2.117-2.322,4.767-3.484,7.953-3.484h18.961v-2.2c0-0.68-0.117-1.269-0.352-1.767s-0.613-1.087-1.136-1.768
		c-0.732-0.838-1.487-1.375-2.271-1.61c-0.783-0.235-1.881-0.354-3.289-0.354h-20.29v-8.956h17.44h3.377
		c3.822,0,6.678,0.328,8.563,0.98c1.886,0.653,3.508,1.635,4.871,2.94c1.729,1.726,2.88,3.607,3.457,5.645
		c0.576,2.039,0.865,4.652,0.865,7.841V308.327z M172.044,300v-7.935h-13.826c-1.309,0-2.422,0.378-3.338,1.129
		c-0.917,0.752-1.375,1.75-1.375,2.994c0,1.091,0.444,1.997,1.335,2.723c0.89,0.728,1.911,1.089,3.063,1.089H172.044z"/>
	
		<path fill="none" stroke="#FFFFFF" stroke-width="18.4931" stroke-linecap="round" stroke-linejoin="round" stroke-miterlimit="10" d="
		M232.611,306.992c0,2.774-0.236,5.027-0.707,6.756c-0.472,1.729-1.493,3.442-3.063,5.146c-1.572,1.7-3.249,2.854-5.028,3.456
		c-1.781,0.602-4.006,0.903-6.678,0.903h-23.41v-8.641H213.5c0.682,0,1.182,0,1.497,0c0.892,0,1.602-0.067,2.127-0.196
		c0.525-0.132,1.102-0.433,1.733-0.904c0.419-0.263,0.892-0.733,1.417-1.414s0.788-1.257,0.788-1.728v-1.886h-14.254
		c-4.989,0-9.163-2.147-12.521-6.442c-3.151-4.031-4.726-8.745-4.726-14.14c0-5.499,1.715-10.251,5.146-14.258
		c3.43-4.006,7.764-6.01,13.001-6.01h24.903V306.992z M221.142,299.607l-0.079-22.703H211.4c-2.881,0-5.106,1.14-6.678,3.418
		c-1.57,2.277-2.356,5.172-2.356,8.68c0,2.672,0.707,4.977,2.121,6.913c1.833,2.463,4.504,3.692,8.013,3.692H221.142z"/>
	
		<path fill="none" stroke="#FFFFFF" stroke-width="18.4931" stroke-linecap="round" stroke-linejoin="round" stroke-miterlimit="10" d="
		M251.542,308.327h-11.077v-54.911h11.077V308.327z"/>
	
		<path fill="none" stroke="#FFFFFF" stroke-width="18.4931" stroke-linecap="round" stroke-linejoin="round" stroke-miterlimit="10" d="
		M294.197,308.563H275.03c-4.662,0-8.708-2.004-12.137-6.011c-3.43-4.006-5.146-8.627-5.146-13.864
		c0-5.708,1.872-10.645,5.617-14.809c3.743-4.163,7.92-6.245,12.529-6.245h18.225v8.405h-13.354c-1.677,0-3.103,0.146-4.281,0.433
		c-1.179,0.288-2.267,0.853-3.261,1.688c-1.833,1.571-2.75,3.692-2.75,6.363h23.567v8.484h-23.567c0,1.257,0.144,2.317,0.434,3.182
		c0.288,0.863,0.88,1.728,1.773,2.592c0.895,0.864,1.958,1.441,3.193,1.729c1.235,0.288,2.745,0.433,4.533,0.433h13.792V308.563z"/>
	
		<path fill="none" stroke="#FFFFFF" stroke-width="18.4931" stroke-linecap="round" stroke-linejoin="round" stroke-miterlimit="10" d="
		M357.827,271.6c0,4.861-1.877,9.002-5.628,12.424c-3.751,3.424-8.223,5.135-13.418,5.135h-23.374v19.168h-13.513v-54.911h37.629
		c5.865,0,10.5,2.013,13.905,6.036C356.361,262.954,357.827,267.002,357.827,271.6z M342.51,270.896c0-2.346-0.97-4.301-2.907-5.865
		c-1.938-1.563-4.163-2.345-6.678-2.345h-17.518v16.968h17.91c2.566,0,4.739-0.833,6.521-2.501
		C341.617,275.484,342.51,273.399,342.51,270.896z"/>
	
		<path fill="none" stroke="#FFFFFF" stroke-width="18.4931" stroke-linecap="round" stroke-linejoin="round" stroke-miterlimit="10" d="
		M403.861,308.327H374.48c-3.299,0-6.115-1.108-8.444-3.327c-2.331-2.218-3.495-5.024-3.495-8.418c0-3.55,1.056-6.486,3.173-8.809
		c2.115-2.322,4.766-3.484,7.952-3.484h18.962v-2.2c0-0.68-0.118-1.269-0.353-1.767c-0.235-0.498-0.614-1.087-1.137-1.768
		c-0.731-0.838-1.487-1.375-2.271-1.61s-1.88-0.354-3.29-0.354H365.29v-8.956h17.439h3.379c3.821,0,6.676,0.328,8.563,0.98
		c1.885,0.653,3.508,1.635,4.87,2.94c1.729,1.726,2.88,3.607,3.457,5.645c0.575,2.039,0.863,4.652,0.863,7.841V308.327z
		 M392.628,300v-7.935h-13.826c-1.31,0-2.423,0.378-3.339,1.129c-0.916,0.752-1.375,1.75-1.375,2.994
		c0,1.091,0.444,1.997,1.336,2.723c0.891,0.728,1.911,1.089,3.064,1.089H392.628z"/>
	
		<path fill="none" stroke="#FFFFFF" stroke-width="18.4931" stroke-linecap="round" stroke-linejoin="round" stroke-miterlimit="10" d="
		M449.659,308.327h-10.92v-26.788c0-0.68-0.156-1.296-0.471-1.846c-0.313-0.55-0.76-1.086-1.335-1.61
		c-1.049-0.89-2.253-1.336-3.614-1.336h-10.684v31.58h-10.919v-40.692h20.896c3.718,0,6.415,0.21,8.092,0.629
		c2.618,0.628,4.713,2.017,6.285,4.163c1.779,2.514,2.67,5.264,2.67,8.249V308.327z"/>
	
		<path fill="none" stroke="#FFFFFF" stroke-width="18.4931" stroke-linecap="round" stroke-linejoin="round" stroke-miterlimit="10" d="
		M492.551,308.563h-19.168c-4.662,0-8.707-2.004-12.138-6.011c-3.431-4.006-5.146-8.627-5.146-13.864
		c0-5.708,1.873-10.645,5.617-14.809c3.744-4.163,7.921-6.245,12.53-6.245h18.225v8.405h-13.354c-1.677,0-3.103,0.146-4.281,0.433
		c-1.178,0.288-2.266,0.853-3.26,1.688c-1.834,1.571-2.749,3.692-2.749,6.363h23.566v8.484h-23.566c0,1.257,0.144,2.317,0.432,3.182
		c0.289,0.863,0.881,1.728,1.774,2.592s1.958,1.441,3.193,1.729c1.234,0.288,2.743,0.433,4.531,0.433h13.793V308.563z"/>
	
		<path fill="none" stroke="#FFFFFF" stroke-width="18.4931" stroke-linecap="round" stroke-linejoin="round" stroke-miterlimit="10" d="
		M511.325,308.327h-11.076v-54.911h11.076V308.327z"/>
</g>
<g>
	<g>
		<g>
			
				<path fill-rule="evenodd" clip-rule="evenodd" fill="none" stroke="#FFFFFF" stroke-width="18.4931" stroke-linecap="round" stroke-linejoin="round" stroke-miterlimit="10" d="
				M219.78,158.995c16.974,7.544,35.011,10.61,53.274,12.909c17.388,2.18,34.765,2.186,52.184,0.687
				c4.878-0.421,8.602,2.336,9.878,6.871c-7.629,1.573-15.31,3.029-22.938,4.778c-7.931,1.827-15.697,4.561-23.711,5.75
				c-8.26,1.24-16.8,2.034-25.082,1.353c-17.64-1.437-31.124-10.288-40.262-25.571c-0.645-1.076-1.379-2.098-2.08-3.15
				C220.628,161.412,220.208,160.203,219.78,158.995z"/>
			
				<path fill-rule="evenodd" clip-rule="evenodd" fill="none" stroke="#FFFFFF" stroke-width="18.4931" stroke-linecap="round" stroke-linejoin="round" stroke-miterlimit="10" d="
				M336.401,165.771c-16.206,2.065-32.21,1.146-48.228,0.15c-15.53-0.951-30.178-4.937-43.696-12.696
				c-17.397-9.988-27.37-25.679-33.96-44.167c0.605-0.039,0.9-0.17,1.051-0.069c31.496,21.322,66.628,33.48,103.55,41.087
				c4.257,0.882,8.547,1.587,12.732,2.707C334.164,154.46,337.145,158.968,336.401,165.771z"/>
			
				<path fill-rule="evenodd" clip-rule="evenodd" fill="none" stroke="#FFFFFF" stroke-width="18.4931" stroke-linecap="round" stroke-linejoin="round" stroke-miterlimit="10" d="
				M235.487,198.409c16.563,1.762,32.019,1.044,47.311-1.713c8.874-1.606,17.588-4.132,26.332-6.417
				c5.907-1.529,11.712-3.425,17.598-5.049c5.543-1.538,8.108-0.448,9.859,4.1c-7.909,0.95-14.124,5.573-20.424,9.735
				c-13.861,9.152-28.785,15.449-45.36,16.66c-10.142,0.744-19.202-3.305-27.028-9.778
				C241.134,203.766,238.709,201.355,235.487,198.409z"/>
			
				<path fill-rule="evenodd" clip-rule="evenodd" fill="none" stroke="#FFFFFF" stroke-width="18.4931" stroke-linecap="round" stroke-linejoin="round" stroke-miterlimit="10" d="
				M261.555,228.157c3.196-1.111,5.968-2.408,8.891-3.049c15.076-3.32,28.128-10.959,41.023-18.958
				c5.501-3.421,10.859-7.066,16.282-10.613c4.489-2.933,7.359-2.989,9.497-0.829c-4.71,4.741-9.561,9.338-14.076,14.243
				c-7.884,8.563-16.122,16.599-26.596,22.048c-11.585,6.046-22.773,5.146-33.732-1.545
				C262.459,229.216,262.169,228.792,261.555,228.157z"/>
			
				<path fill-rule="evenodd" clip-rule="evenodd" fill="none" stroke="#FFFFFF" stroke-width="18.4931" stroke-linecap="round" stroke-linejoin="round" stroke-miterlimit="10" d="
				M286.288,248.34c6.737-5.182,13.799-9.679,19.715-15.379c8.035-7.749,15.205-16.398,22.722-24.685
				c1.365-1.505,2.322-3.51,3.918-4.659c1.544-1.103,3.667-1.398,6.142-2.263c-5.104,10.114-9.502,19.498-14.515,28.545
				c-4.519,8.173-10.59,15.023-19.857,18.206C298.418,250.173,292.415,250.013,286.288,248.34z"/>
			
				<path fill-rule="evenodd" clip-rule="evenodd" fill="none" stroke="#FFFFFF" stroke-width="18.4931" stroke-linecap="round" stroke-linejoin="round" stroke-miterlimit="10" d="
				M341.132,210.927c-0.796,6.405-1.224,12.736-2.453,18.93c-1.228,6.21-2.581,12.537-5.085,18.293
				c-4.014,9.18-11.841,13.491-22.4,14.227c2.065-2.655,3.788-4.817,5.457-7.009c8.891-11.769,14.447-25.139,18.902-39.064
				C336.474,213.423,337.606,210.807,341.132,210.927z"/>
			
				<path fill-rule="evenodd" clip-rule="evenodd" fill="none" stroke="#FFFFFF" stroke-width="18.4931" stroke-linecap="round" stroke-linejoin="round" stroke-miterlimit="10" d="
				M346.788,225.324c0.527,6.133,1.562,12.304,1.405,18.441c-0.121,4.839-1.099,9.863-2.799,14.383
				c-1.816,4.856-6.214,7.499-11.792,9.004c0.476-1.168,0.734-1.938,1.099-2.647c5.5-10.725,7.719-22.288,8.852-34.137
				C343.93,226.518,343.963,226.527,346.788,225.324z"/>
			
				<path fill-rule="evenodd" clip-rule="evenodd" fill="none" stroke="#FFFFFF" stroke-width="18.4931" stroke-linecap="round" stroke-linejoin="round" stroke-miterlimit="10" d="
				M349.439,270.922c3.226-11.754,2.694-23.335,1.119-34.96c-0.168-1.228,0.605-2.573,0.948-3.849
				c0.358,0.025,0.726,0.074,1.089,0.112c1.882,6.297,4.121,12.484,5.57,18.877C360.225,260.146,356.951,267.29,349.439,270.922z"/>
		</g>
	</g>
	<g>
		
			<path fill-rule="evenodd" clip-rule="evenodd" fill="none" stroke="#FFFFFF" stroke-width="18.4931" stroke-linecap="round" stroke-linejoin="round" stroke-miterlimit="10" d="
			M434.728,196.103c0,0,10.69,0.026,14.938,7.903C452.32,208.934,453.103,190.393,434.728,196.103z"/>
		
			<path fill-rule="evenodd" clip-rule="evenodd" fill="none" stroke="#FFFFFF" stroke-width="18.4931" stroke-linecap="round" stroke-linejoin="round" stroke-miterlimit="10" d="
			M423.674,184.429c0.092,0.731-1.063,1.466-2.576,1.656c-1.522,0.189-2.82-0.252-2.903-0.97c-0.095-0.731,1.06-1.473,2.573-1.663
			C422.282,183.271,423.58,183.706,423.674,184.429z"/>
		
			<path fill-rule="evenodd" clip-rule="evenodd" fill="none" stroke="#FFFFFF" stroke-width="18.4931" stroke-linecap="round" stroke-linejoin="round" stroke-miterlimit="10" d="
			M445.439,187.749c-4.44-2.167-9.639-2.802-13.747-3.918c-2.647-1.542-4.663-3.412-6.968-3.922
			c-6.939-1.531-14.068-1.481-20.766,0.962c-18.869,6.866-31.942,19.566-37.992,39.006c-0.396,1.263-0.882,2.513-1.34,3.788
			c-0.676-0.294-0.943-0.346-1.133-0.51c-0.29-0.233-0.563-0.511-0.787-0.822c-8.579-11.939-11.149-25.164-8.33-39.535
			c1.368-7.008,3.166-13.973,3.91-21.05c1.229-11.657-2.785-21.127-13.705-26.63c-4.656-2.351-9.574-4.221-14.448-6.096
			c-24.52-9.46-48.037-20.693-68.284-37.859c-11.028-9.358-21.398-19.307-28.801-31.929c-3.019-5.157-6.011-10.32-9.221-15.83
			c-0.294,1.027-0.545,1.726-0.683,2.437c-3.374,16.827-0.433,32.33,9.064,46.776c10.224,15.56,24.283,26.787,40.028,36
			c17.567,10.271,36.689,16.63,56.601,20.681c10.976,2.216,14.345,7.688,12.563,18.569c-3.109,18.917-1.76,37.079,9.977,53.367
			c9.679,13.425,22.297,20.672,39.099,19.687c10.254-0.607,29.101-3.209,29.325-8.555c0.341-7.892,2.387-15.309,5.906-22.413
			c2.224-4.47,5.372-6.537,10.414-5.833c1.851,0.267,4.139,0.556,5.605-0.27c3.226-1.818,4.453,0.069,5.564,2.301
			c0.865,1.742,1.337,3.676,1.951,5.431C456.151,204.353,454.578,192.211,445.439,187.749z M449.206,200.631
			c-3.14-2.602-5.804-2.885-9.038-0.643c-1.271,0.882-3.468,0.536-5.25,0.497c-6.071-0.138-10.215,2.456-13.371,7.791
			c-3.961,6.669-8.277,13.229-13.212,19.192c-11.266,13.622-26.072,10.898-36.793,3.949c-4.191-2.712-5.583-8.775-3.335-13.749
			c6.205-13.7,15.266-24.984,29.588-30.494c7.137-2.747,15.059-3.484,22.661-4.976c1.168-0.227,2.747,0,3.677,0.668
			c0.994,0.698,1.436,2.158,2.11,3.293c-1.028,0.597-2.017,1.548-3.109,1.712c-1.552,0.214-3.188-0.152-5.592-0.322
			c3.762,5.232,6.574,5.41,10.501,1.939c1.262-1.12,3.671-2.098,5.103-1.657c4.436,1.38,8.934,3.01,12.817,5.473
			C447.874,194.53,448.479,197.803,449.206,200.631z"/>
		
			<path fill-rule="evenodd" clip-rule="evenodd" fill="none" stroke="#FFFFFF" stroke-width="18.4931" stroke-linecap="round" stroke-linejoin="round" stroke-miterlimit="10" d="
			M398.437,183.729c0,0-3.14,0.039-9.955,0.667c-6.799,0.613,12.896-8.361,19.772-3.74
			C415.129,185.279,398.437,183.729,398.437,183.729z"/>
	</g>
</g>
<path fill-rule="evenodd" clip-rule="evenodd" fill="#FFFFFF" d="M370.234,316.895c44.277,0.001,88.557,0.001,132.834,0.001
	c0.572,0,1.144-0.011,1.716,0.004c1.953,0.051,2.913,0.923,2.934,2.652c0.021,1.805-0.939,2.737-2.984,2.746
	c-5.612,0.025-11.226,0.011-16.838,0.011c-83.878,0-167.757,0-251.636-0.01c-0.772,0-1.812,0.151-2.257-0.268
	c-0.714-0.674-1.479-1.806-1.401-2.667c0.078-0.844,1.092-1.711,1.881-2.333c0.397-0.313,1.204-0.133,1.826-0.133
	C280.951,316.895,325.592,316.895,370.234,316.895z"/>
<g>
	<path fill="#0F763C" d="M252.065,342.804l-2.687-9.507l-2.743,9.507h-3.105l-4.401-13.336h3.239l2.801,10.06l2.781-10.06h2.953
		l2.819,10.06l2.782-10.06h3.086l-4.42,13.336H252.065z"/>
	<path fill="#0F763C" d="M267.728,331.964v2.896h6.44v2.496h-6.44v2.953h7.354v2.495h-10.364v-13.336h10.154v2.496H267.728z"/>
	<path fill="#0F763C" d="M287.391,329.468c2.934,0,4.763,1.276,4.763,3.334c0,1.448-0.876,2.572-2.305,2.935
		c1.715,0.323,2.782,1.619,2.782,3.371c0,2.287-1.924,3.696-5.03,3.696h-6.344v-13.336H287.391z M284.267,334.84h2.972
		c1.124,0,1.829-0.552,1.829-1.485c0-0.915-0.705-1.429-1.829-1.429h-2.972V334.84z M284.267,340.346h2.972
		c1.429,0,2.286-0.59,2.286-1.619c0-0.971-0.857-1.563-2.286-1.563h-2.972V340.346z"/>
	<path fill="#0F763C" d="M316.086,342.804v-5.258h-6.04v5.258h-3.01v-13.336h3.01v5.563h6.04v-5.563h3.01v13.336H316.086z"/>
	<path fill="#0F763C" d="M339.216,336.136c0,3.849-3.087,6.802-7.164,6.802c-4.076,0-7.163-2.934-7.163-6.802
		c0-3.887,3.087-6.764,7.163-6.764C336.129,329.373,339.216,332.269,339.216,336.136z M327.976,336.136
		c0,2.344,1.886,4.173,4.114,4.173c2.229,0,4.039-1.829,4.039-4.173c0-2.343-1.81-4.134-4.039-4.134
		C329.842,332.002,327.976,333.793,327.976,336.136z"/>
	<path fill="#0F763C" d="M354.954,330.783l-1.162,2.496c-1.41-0.839-3.087-1.372-4.153-1.372c-1.01,0-1.695,0.362-1.695,1.086
		c0,2.458,7.106,1.086,7.087,5.888c0,2.609-2.267,4.02-5.22,4.02c-2.191,0-4.383-0.839-5.888-2.115l1.2-2.457
		c1.372,1.219,3.315,2,4.726,2c1.238,0,1.98-0.457,1.98-1.276c0-2.515-7.105-1.048-7.105-5.772c0-2.42,2.076-3.943,5.163-3.943
		C351.754,329.335,353.621,329.907,354.954,330.783z"/>
	<path fill="#0F763C" d="M366.71,332.021v10.783h-3.01v-10.783h-4.058v-2.553h11.145v2.553H366.71z"/>
	<path fill="#0F763C" d="M376.219,342.804v-13.336h3.01v13.336H376.219z"/>
	<path fill="#0F763C" d="M395.328,342.804l-6.459-8.554v8.554h-2.876v-13.336h2.743l6.478,8.573v-8.573h2.857v13.336H395.328z"/>
	<path fill="#0F763C" d="M416.382,336.079v5.126c-1.409,1.028-3.563,1.733-5.41,1.733c-4.039,0-7.106-2.934-7.106-6.802
		c0-3.849,3.124-6.764,7.277-6.764c1.981,0,4.001,0.763,5.354,1.943l-1.695,2.153c-0.991-0.914-2.362-1.486-3.658-1.486
		c-2.362,0-4.191,1.811-4.191,4.153c0,2.362,1.848,4.173,4.211,4.173c0.8,0,1.752-0.286,2.609-0.725v-3.506H416.382z"/>
	<path fill="#0F763C" d="M436.884,329.468c3.392,0,5.335,1.677,5.335,4.63c0,3.105-1.943,4.896-5.335,4.896h-2.647v3.811h-3.011
		v-13.336H436.884z M434.236,336.479h2.495c1.677,0,2.63-0.762,2.63-2.286c0-1.486-0.953-2.229-2.63-2.229h-2.495V336.479z"/>
	<path fill="#0F763C" d="M449.65,340.213l-1.048,2.591h-3.105l5.792-13.336h3.104l5.696,13.336h-3.219l-1.048-2.591H449.65z
		 M452.756,332.612l-2.115,5.182h4.21L452.756,332.612z"/>
	<path fill="#0F763C" d="M474.629,342.804l-6.459-8.554v8.554h-2.877v-13.336h2.744l6.477,8.573v-8.573h2.858v13.336H474.629z"/>
	<path fill="#0F763C" d="M487.128,331.964v2.896h6.439v2.496h-6.439v2.953h7.354v2.495h-10.364v-13.336h10.154v2.496H487.128z"/>
	<path fill="#0F763C" d="M509.383,340.175v2.629h-8.726v-13.336h3.01v10.707H509.383z"/>
</g>
<g>
	<path fill="#701512" d="M136.851,308.327h-26.787c-4.138,0-8.118-0.941-11.94-2.824c-4.138-2.039-7.294-5.28-9.467-9.727
		c-2.173-4.445-3.259-9.335-3.259-14.669c0-5.281,1.046-10.067,3.143-14.356c2.304-4.652,5.499-8.052,9.583-10.197
		c2.251-1.15,4.411-1.96,6.48-2.432c2.069-0.471,4.438-0.706,7.109-0.706h24.824v9.82h-22.938c-2.042,0-3.759,0.27-5.146,0.81
		c-1.389,0.54-2.764,1.504-4.124,2.892c-1.363,1.389-2.305,2.737-2.828,4.048c-0.524,1.312-0.786,2.944-0.786,4.898h36.136v9.819
		h-36.136c0,1.781,0.236,3.339,0.709,4.674c0.474,1.335,1.329,2.71,2.564,4.124c1.235,1.414,2.525,2.488,3.867,3.222
		c1.34,0.733,2.932,1.1,4.773,1.1h24.222V308.327z"/>
	<path fill="#701512" d="M183.279,308.327h-29.38c-3.3,0-6.115-1.108-8.445-3.327c-2.33-2.218-3.496-5.024-3.496-8.418
		c0-3.55,1.058-6.486,3.173-8.809c2.117-2.322,4.767-3.484,7.953-3.484h18.961v-2.2c0-0.68-0.117-1.269-0.352-1.767
		s-0.613-1.087-1.136-1.768c-0.732-0.838-1.487-1.375-2.271-1.61c-0.783-0.235-1.881-0.354-3.289-0.354h-20.29v-8.956h17.44h3.377
		c3.822,0,6.678,0.328,8.563,0.98c1.886,0.653,3.508,1.635,4.871,2.94c1.729,1.726,2.88,3.607,3.457,5.645
		c0.576,2.039,0.865,4.652,0.865,7.841V308.327z M172.044,300v-7.935h-13.826c-1.309,0-2.422,0.378-3.338,1.129
		c-0.917,0.752-1.375,1.75-1.375,2.994c0,1.091,0.444,1.997,1.335,2.723c0.89,0.728,1.911,1.089,3.063,1.089H172.044z"/>
	<path fill="#701512" d="M232.611,306.992c0,2.774-0.236,5.027-0.707,6.756c-0.472,1.729-1.493,3.442-3.063,5.146
		c-1.572,1.7-3.249,2.854-5.028,3.456c-1.781,0.602-4.006,0.903-6.678,0.903h-23.41v-8.641H213.5c0.682,0,1.182,0,1.497,0
		c0.892,0,1.602-0.067,2.127-0.196c0.525-0.132,1.102-0.433,1.733-0.904c0.419-0.263,0.892-0.733,1.417-1.414
		s0.788-1.257,0.788-1.728v-1.886h-14.254c-4.989,0-9.163-2.147-12.521-6.442c-3.151-4.031-4.726-8.745-4.726-14.14
		c0-5.499,1.715-10.251,5.146-14.258c3.43-4.006,7.764-6.01,13.001-6.01h24.903V306.992z M221.142,299.607l-0.079-22.703H211.4
		c-2.881,0-5.106,1.14-6.678,3.418c-1.57,2.277-2.356,5.172-2.356,8.68c0,2.672,0.707,4.977,2.121,6.913
		c1.833,2.463,4.504,3.692,8.013,3.692H221.142z"/>
	<path fill="#701512" d="M251.542,308.327h-11.077v-54.911h11.077V308.327z"/>
	<path fill="#701512" d="M294.197,308.563H275.03c-4.662,0-8.708-2.004-12.137-6.011c-3.43-4.006-5.146-8.627-5.146-13.864
		c0-5.708,1.872-10.645,5.617-14.809c3.743-4.163,7.92-6.245,12.529-6.245h18.225v8.405h-13.354c-1.677,0-3.103,0.146-4.281,0.433
		c-1.179,0.288-2.267,0.853-3.261,1.688c-1.833,1.571-2.75,3.692-2.75,6.363h23.567v8.484h-23.567c0,1.257,0.144,2.317,0.434,3.182
		c0.288,0.863,0.88,1.728,1.773,2.592c0.895,0.864,1.958,1.441,3.193,1.729c1.235,0.288,2.745,0.433,4.533,0.433h13.792V308.563z"/>
	<path fill="#701512" d="M357.827,271.6c0,4.861-1.877,9.002-5.628,12.424c-3.751,3.424-8.223,5.135-13.418,5.135h-23.374v19.168
		h-13.513v-54.911h37.629c5.865,0,10.5,2.013,13.905,6.036C356.361,262.954,357.827,267.002,357.827,271.6z M342.51,270.896
		c0-2.346-0.97-4.301-2.907-5.865c-1.938-1.563-4.163-2.345-6.678-2.345h-17.518v16.968h17.91c2.566,0,4.739-0.833,6.521-2.501
		C341.617,275.484,342.51,273.399,342.51,270.896z"/>
	<path fill="#701512" d="M403.861,308.327H374.48c-3.299,0-6.115-1.108-8.444-3.327c-2.331-2.218-3.495-5.024-3.495-8.418
		c0-3.55,1.056-6.486,3.173-8.809c2.115-2.322,4.766-3.484,7.952-3.484h18.962v-2.2c0-0.68-0.118-1.269-0.353-1.767
		c-0.235-0.498-0.614-1.087-1.137-1.768c-0.731-0.838-1.487-1.375-2.271-1.61s-1.88-0.354-3.29-0.354H365.29v-8.956h17.439h3.379
		c3.821,0,6.676,0.328,8.563,0.98c1.885,0.653,3.508,1.635,4.87,2.94c1.729,1.726,2.88,3.607,3.457,5.645
		c0.575,2.039,0.863,4.652,0.863,7.841V308.327z M392.628,300v-7.935h-13.826c-1.31,0-2.423,0.378-3.339,1.129
		c-0.916,0.752-1.375,1.75-1.375,2.994c0,1.091,0.444,1.997,1.336,2.723c0.891,0.728,1.911,1.089,3.064,1.089H392.628z"/>
	<path fill="#701512" d="M449.659,308.327h-10.92v-26.788c0-0.68-0.156-1.296-0.471-1.846c-0.313-0.55-0.76-1.086-1.335-1.61
		c-1.049-0.89-2.253-1.336-3.614-1.336h-10.684v31.58h-10.919v-40.692h20.896c3.718,0,6.415,0.21,8.092,0.629
		c2.618,0.628,4.713,2.017,6.285,4.163c1.779,2.514,2.67,5.264,2.67,8.249V308.327z"/>
	<path fill="#701512" d="M492.551,308.563h-19.168c-4.662,0-8.707-2.004-12.138-6.011c-3.431-4.006-5.146-8.627-5.146-13.864
		c0-5.708,1.873-10.645,5.617-14.809c3.744-4.163,7.921-6.245,12.53-6.245h18.225v8.405h-13.354c-1.677,0-3.103,0.146-4.281,0.433
		c-1.178,0.288-2.266,0.853-3.26,1.688c-1.834,1.571-2.749,3.692-2.749,6.363h23.566v8.484h-23.566c0,1.257,0.144,2.317,0.432,3.182
		c0.289,0.863,0.881,1.728,1.774,2.592s1.958,1.441,3.193,1.729c1.234,0.288,2.743,0.433,4.531,0.433h13.793V308.563z"/>
	<path fill="#701512" d="M511.325,308.327h-11.076v-54.911h11.076V308.327z"/>
</g>
<g>
	<g>
		<g>
			<path fill-rule="evenodd" clip-rule="evenodd" fill="#0C70B7" d="M219.78,158.995c16.974,7.544,35.011,10.61,53.274,12.909
				c17.388,2.18,34.765,2.186,52.184,0.687c4.878-0.421,8.602,2.336,9.878,6.871c-7.629,1.573-15.31,3.029-22.938,4.778
				c-7.931,1.827-15.697,4.561-23.711,5.75c-8.26,1.24-16.8,2.034-25.082,1.353c-17.64-1.437-31.124-10.288-40.262-25.571
				c-0.645-1.076-1.379-2.098-2.08-3.15C220.628,161.412,220.208,160.203,219.78,158.995z"/>
			<path fill-rule="evenodd" clip-rule="evenodd" fill="#0C70B7" d="M336.401,165.771c-16.206,2.065-32.21,1.146-48.228,0.15
				c-15.53-0.951-30.178-4.937-43.696-12.696c-17.397-9.988-27.37-25.679-33.96-44.167c0.605-0.039,0.9-0.17,1.051-0.069
				c31.496,21.322,66.628,33.48,103.55,41.087c4.257,0.882,8.547,1.587,12.732,2.707
				C334.164,154.46,337.145,158.968,336.401,165.771z"/>
			<path fill-rule="evenodd" clip-rule="evenodd" fill="#0C70B7" d="M235.487,198.409c16.563,1.762,32.019,1.044,47.311-1.713
				c8.874-1.606,17.588-4.132,26.332-6.417c5.907-1.529,11.712-3.425,17.598-5.049c5.543-1.538,8.108-0.448,9.859,4.1
				c-7.909,0.95-14.124,5.573-20.424,9.735c-13.861,9.152-28.785,15.449-45.36,16.66c-10.142,0.744-19.202-3.305-27.028-9.778
				C241.134,203.766,238.709,201.355,235.487,198.409z"/>
			<path fill-rule="evenodd" clip-rule="evenodd" fill="#0C70B7" d="M261.555,228.157c3.196-1.111,5.968-2.408,8.891-3.049
				c15.076-3.32,28.128-10.959,41.023-18.958c5.501-3.421,10.859-7.066,16.282-10.613c4.489-2.933,7.359-2.989,9.497-0.829
				c-4.71,4.741-9.561,9.338-14.076,14.243c-7.884,8.563-16.122,16.599-26.596,22.048c-11.585,6.046-22.773,5.146-33.732-1.545
				C262.459,229.216,262.169,228.792,261.555,228.157z"/>
			<path fill-rule="evenodd" clip-rule="evenodd" fill="#0C70B7" d="M286.288,248.34c6.737-5.182,13.799-9.679,19.715-15.379
				c8.035-7.749,15.205-16.398,22.722-24.685c1.365-1.505,2.322-3.51,3.918-4.659c1.544-1.103,3.667-1.398,6.142-2.263
				c-5.104,10.114-9.502,19.498-14.515,28.545c-4.519,8.173-10.59,15.023-19.857,18.206
				C298.418,250.173,292.415,250.013,286.288,248.34z"/>
			<path fill-rule="evenodd" clip-rule="evenodd" fill="#0C70B7" d="M341.132,210.927c-0.796,6.405-1.224,12.736-2.453,18.93
				c-1.228,6.21-2.581,12.537-5.085,18.293c-4.014,9.18-11.841,13.491-22.4,14.227c2.065-2.655,3.788-4.817,5.457-7.009
				c8.891-11.769,14.447-25.139,18.902-39.064C336.474,213.423,337.606,210.807,341.132,210.927z"/>
			<path fill-rule="evenodd" clip-rule="evenodd" fill="#0C70B7" d="M346.788,225.324c0.527,6.133,1.562,12.304,1.405,18.441
				c-0.121,4.839-1.099,9.863-2.799,14.383c-1.816,4.856-6.214,7.499-11.792,9.004c0.476-1.168,0.734-1.938,1.099-2.647
				c5.5-10.725,7.719-22.288,8.852-34.137C343.93,226.518,343.963,226.527,346.788,225.324z"/>
			<path fill-rule="evenodd" clip-rule="evenodd" fill="#0C70B7" d="M349.439,270.922c3.226-11.754,2.694-23.335,1.119-34.96
				c-0.168-1.228,0.605-2.573,0.948-3.849c0.358,0.025,0.726,0.074,1.089,0.112c1.882,6.297,4.121,12.484,5.57,18.877
				C360.225,260.146,356.951,267.29,349.439,270.922z"/>
		</g>
	</g>
	<g>
		<path fill-rule="evenodd" clip-rule="evenodd" fill="#0C70B7" d="M434.728,196.103c0,0,10.69,0.026,14.938,7.903
			C452.32,208.934,453.103,190.393,434.728,196.103z"/>
		<path fill-rule="evenodd" clip-rule="evenodd" fill="#0C70B7" d="M423.674,184.429c0.092,0.731-1.063,1.466-2.576,1.656
			c-1.522,0.189-2.82-0.252-2.903-0.97c-0.095-0.731,1.06-1.473,2.573-1.663C422.282,183.271,423.58,183.706,423.674,184.429z"/>
		<path fill-rule="evenodd" clip-rule="evenodd" fill="#0C70B7" d="M445.439,187.749c-4.44-2.167-9.639-2.802-13.747-3.918
			c-2.647-1.542-4.663-3.412-6.968-3.922c-6.939-1.531-14.068-1.481-20.766,0.962c-18.869,6.866-31.942,19.566-37.992,39.006
			c-0.396,1.263-0.882,2.513-1.34,3.788c-0.676-0.294-0.943-0.346-1.133-0.51c-0.29-0.233-0.563-0.511-0.787-0.822
			c-8.579-11.939-11.149-25.164-8.33-39.535c1.368-7.008,3.166-13.973,3.91-21.05c1.229-11.657-2.785-21.127-13.705-26.63
			c-4.656-2.351-9.574-4.221-14.448-6.096c-24.52-9.46-48.037-20.693-68.284-37.859c-11.028-9.358-21.398-19.307-28.801-31.929
			c-3.019-5.157-6.011-10.32-9.221-15.83c-0.294,1.027-0.545,1.726-0.683,2.437c-3.374,16.827-0.433,32.33,9.064,46.776
			c10.224,15.56,24.283,26.787,40.028,36c17.567,10.271,36.689,16.63,56.601,20.681c10.976,2.216,14.345,7.688,12.563,18.569
			c-3.109,18.917-1.76,37.079,9.977,53.367c9.679,13.425,22.297,20.672,39.099,19.687c10.254-0.607,29.101-3.209,29.325-8.555
			c0.341-7.892,2.387-15.309,5.906-22.413c2.224-4.47,5.372-6.537,10.414-5.833c1.851,0.267,4.139,0.556,5.605-0.27
			c3.226-1.818,4.453,0.069,5.564,2.301c0.865,1.742,1.337,3.676,1.951,5.431C456.151,204.353,454.578,192.211,445.439,187.749z
			 M449.206,200.631c-3.14-2.602-5.804-2.885-9.038-0.643c-1.271,0.882-3.468,0.536-5.25,0.497
			c-6.071-0.138-10.215,2.456-13.371,7.791c-3.961,6.669-8.277,13.229-13.212,19.192c-11.266,13.622-26.072,10.898-36.793,3.949
			c-4.191-2.712-5.583-8.775-3.335-13.749c6.205-13.7,15.266-24.984,29.588-30.494c7.137-2.747,15.059-3.484,22.661-4.976
			c1.168-0.227,2.747,0,3.677,0.668c0.994,0.698,1.436,2.158,2.11,3.293c-1.028,0.597-2.017,1.548-3.109,1.712
			c-1.552,0.214-3.188-0.152-5.592-0.322c3.762,5.232,6.574,5.41,10.501,1.939c1.262-1.12,3.671-2.098,5.103-1.657
			c4.436,1.38,8.934,3.01,12.817,5.473C447.874,194.53,448.479,197.803,449.206,200.631z"/>
		<path fill-rule="evenodd" clip-rule="evenodd" fill="#0C70B7" d="M398.437,183.729c0,0-3.14,0.039-9.955,0.667
			c-6.799,0.613,12.896-8.361,19.772-3.74C415.129,185.279,398.437,183.729,398.437,183.729z"/>
	</g>
</g>
</svg>
